<svg xmlns="http://www.w3.org/2000/svg" width="24" height="24" viewBox="0 0 24 24" fill="none" stroke="currentColor" stroke-width="2" stroke-linecap="round" stroke-linejoin="round">
  <circle cx="12" cy="12" r="10"></circle>
  <line x1="12" y1="8" x2="12" y2="16"></line>
</svg>

<svg xmlns="http://www.w3.org/2000/svg" width="24" height="24" viewBox="0 0 24 24" fill="none" stroke="currentColor" stroke-width="2" stroke-linecap="round" stroke-linejoin="round">
  <rect x="3" y="4" width="18" height="18" rx="2"></rect>
  <line x1="9" y1="8" x2="15" y2="8"></line>
</svg>

<svg xmlns="http://www.w3.org/2000/svg" width="24" height="24" viewBox="0 0 24 24" fill="none" stroke="currentColor" stroke-width="2" stroke-linecap="round" stroke-linejoin="round">
  <path d="M12 6v6m0 0h6"></path>
  <path d="M12 12c2.42 0 4.34 1.43 5.14 3.74l-7 7 3 3 7-7zm0 10c1.11 0 2-.9 2-2s-.89-2-2-2-2 .9-2 2 .9 2 2 2z"></path>
</svg>

<svg xmlns="http://www.w3.org/2000/svg" width="24" height="24" viewBox="0 0 24 24" fill="none" stroke="currentColor" stroke-width="2" stroke-linecap="round" stroke-linejoin="round">
  <circle cx="12" cy="12" r="10"></circle>
  <line x1="12" y1="8" x2="12" y2="16"></line>
  <line x1="10" y1="12" x2="14" y2="12"></line>
</svg>

<svg xmlns="http://www.w3.org/2000/svg" width="24" height="24" viewBox="0 0 24 24" fill="none" stroke="currentColor" stroke-width="2" stroke-linecap="round" stroke-linejoin="round">
  <path d="M12 6v6m0 0h6"></path>
  <path d="M12 12c2.42 0 4.34 1.43 5.14 3.74l-7 7 3 3 7-7zm0 10c1.11 0 2-.9 2-2s-.89-2-2-2-2 .9-2 2 .9 2 2 2z"></path>
</svg>